HIERARCHY
ROOT Hips
{
	OFFSET -0.179506 -22.333345 2.821913
	CHANNELS 6 Xposition Yposition Zposition Zrotation Yrotation Xrotation 
	JOINT LeftUpLeg
	{
		OFFSET 6.951974 -9.140623 -0.681533
		CHANNELS 3 Zrotation Yrotation Xrotation
		JOINT LeftLeg
		{
			OFFSET 3.427654 -37.519855 -0.449580
			CHANNELS 3 Zrotation Yrotation Xrotation
			JOINT LeftFoot
			{
				OFFSET -1.359570 -39.796059 -4.369333
				CHANNELS 3 Zrotation Yrotation Xrotation
				JOINT LeftToe
				{
					OFFSET 2.635814 -5.579078 11.928840
					CHANNELS 3 Zrotation Yrotation Xrotation
					End Site
					{
						OFFSET 0.000000 0.000000 0.000000
					}
				}
			}
		}
	}
	JOINT RightUpLeg
	{
		OFFSET -6.767048 -9.052170 -0.431982
		CHANNELS 3 Zrotation Yrotation Xrotation
		JOINT RightLeg
		{
			OFFSET -3.829005 -38.256897 -0.885003
			CHANNELS 3 Zrotation Yrotation Xrotation
			JOINT RightFoot
			{
				OFFSET 1.577377 -39.841461 -4.231180
				CHANNELS 3 Zrotation Yrotation Xrotation
				JOINT RightToe
				{
					OFFSET -2.537174 -4.814398 12.334795
					CHANNELS 3 Zrotation Yrotation Xrotation
					End Site
					{
						OFFSET 0.000000 0.000000 0.000000
					}
				}
			}
		}
	}
	JOINT Spine
	{
		OFFSET -0.253288 10.896323 -2.669631
		CHANNELS 3 Zrotation Yrotation Xrotation
		JOINT Spine1
		{
			OFFSET 0.548704 13.518043 0.109247
			CHANNELS 3 Zrotation Yrotation Xrotation
			JOINT Spine2
			{
				OFFSET 0.145701 5.292222 2.542457
				CHANNELS 3 Zrotation Yrotation Xrotation
				JOINT Neck
				{
					OFFSET -0.277840 21.387037 -4.285703
					CHANNELS 3 Zrotation Yrotation Xrotation
					JOINT Head
					{
						OFFSET 0.515184 6.496960 5.134897
						CHANNELS 3 Zrotation Yrotation Xrotation
						End Site
						{
							OFFSET 0.000000 0.000000 0.000000
						}
					}
				}
				JOINT LeftShoulder
				{
					OFFSET 7.884473 12.174932 -3.408961
					CHANNELS 3 Zrotation Yrotation Xrotation
					JOINT LeftArm
					{
						OFFSET 9.097692 3.046888 -0.886815
						CHANNELS 3 Zrotation Yrotation Xrotation
						JOINT LeftForeArm
						{
							OFFSET 25.961220 -1.277207 -2.745643
							CHANNELS 3 Zrotation Yrotation Xrotation
							JOINT LeftHand
							{
								OFFSET 24.923361 0.898606 -0.117091
								CHANNELS 3 Zrotation Yrotation Xrotation
								End Site
								{
									OFFSET 0.000000 0.000000 0.000000
								}
							}
						}
					}
				}
				JOINT RightShoulder
				{
					OFFSET -8.175920 11.883285 -3.861528
					CHANNELS 3 Zrotation Yrotation Xrotation
					JOINT RightArm
					{
						OFFSET -9.601238 3.255117 -0.914307
						CHANNELS 3 Zrotation Yrotation Xrotation
						JOINT RightForeArm
						{
							OFFSET -25.374195 -1.332924 -2.140099
							CHANNELS 3 Zrotation Yrotation Xrotation
							JOINT RightHand
							{
								OFFSET -25.529810 0.777228 -0.555919
								CHANNELS 3 Zrotation Yrotation Xrotation
								End Site
								{
									OFFSET 0.000000 0.000000 0.000000
								}
							}
						}
					}
				}
			}
		}
	}
}
MOTION
Frames: 17
Frame Time: 0.033333
160.806808 30.221581 99.582329 176.069753 -0.949545 86.827639 1.890356 2.518582 8.182461 -2.156616 -3.014713 -1.653127 1.280359 8.084441 -2.928348 nan nan nan -0.978555 -3.015922 7.379627 2.923843 2.456750 -1.360440 7.417240 -0.366931 -0.679591 nan nan nan 0.269583 0.818999 4.840444 0.751639 -2.018084 2.657056 -0.601978 -0.093111 2.241553 -1.348335 0.806166 1.311367 -0.051514 -3.644883 5.314002 -25.484371 3.283813 1.219596 -58.558903 -7.172324 10.166003 7.358279 -22.809167 8.124069 -6.797657 -7.273609 -6.661673 26.112668 1.166139 2.988910 59.074455 7.625187 12.214611 -11.558130 17.433343 -5.484465 4.231171 3.194188 -7.469317 
160.807831 30.226746 99.568420 176.068469 -0.861043 86.809634 1.993727 2.596878 8.159866 -2.140412 -2.988463 -1.575548 1.179853 8.033574 -2.990873 nan nan nan -0.865920 -3.049732 7.451164 2.885734 2.500572 -1.459481 7.511496 -0.371192 -0.631196 nan nan nan 0.450683 0.770526 4.891163 0.639744 -1.975428 2.620157 -0.619819 -0.081222 2.257447 -1.462507 0.774256 1.201286 -0.056112 -3.645634 5.354488 -25.307460 3.302215 1.211798 -58.698105 -7.169213 10.141903 7.320730 -22.803044 8.277777 -6.811187 -7.319571 -6.876475 26.046738 1.160752 2.923557 59.205079 7.574371 12.250861 -11.587002 17.479197 -5.392056 4.187452 3.131473 -7.471440 
160.812927 30.229832 99.558258 176.095114 -0.839687 86.819487 2.084804 2.611133 8.192041 -2.227274 -3.000421 -1.679513 1.146717 8.003586 -2.884570 nan nan nan -0.817013 -3.023208 7.479617 2.860455 2.506519 -1.530843 7.530140 -0.438449 -0.613502 nan nan nan 0.438048 0.778986 4.848390 0.637973 -1.965476 2.658587 -0.586696 -0.073520 2.287582 -1.338684 0.749711 1.148563 -0.039086 -3.590497 5.393310 -25.269317 3.264926 1.271449 -58.789025 -7.233416 10.138725 7.375694 -22.769223 8.237955 -6.772831 -7.306706 -6.928261 26.019686 1.134836 2.876978 59.244063 7.545551 12.292865 -11.615846 17.527983 -5.351420 4.169093 3.090760 -7.491002 
160.823120 30.233110 99.544273 176.115073 -0.826502 86.835558 2.249395 2.618502 8.319932 -2.440145 -3.077843 -1.982989 1.118443 7.991031 -2.657607 nan nan nan -0.778218 -2.926284 7.477946 2.857031 2.491735 -1.538618 7.451153 -0.524329 -0.656705 nan nan nan 0.349823 0.830242 4.714957 0.684416 -1.937276 2.792059 -0.532049 -0.063641 2.334705 -1.137886 0.704670 1.120190 -0.031782 -3.561096 5.399491 -25.218031 3.150930 1.389986 -58.949042 -7.339676 10.191702 7.528860 -22.741481 8.129361 -6.687220 -7.320059 -6.983616 26.003462 1.101884 2.835663 59.240425 7.532166 12.319904 -11.652431 17.591985 -5.334370 4.158134 3.050713 -7.589876 
160.843567 30.256508 99.538826 176.008675 -0.850465 86.853007 2.317382 2.707777 8.362900 -2.549351 -3.041219 -2.064872 1.097054 7.969847 -2.581903 nan nan nan -0.801697 -2.880924 7.455771 2.838891 2.590628 -1.495955 7.409969 -0.467160 -0.716627 nan nan nan 0.299508 0.893379 4.595671 0.724298 -1.906271 2.882499 -0.485575 -0.045591 2.324705 -0.962551 0.765568 1.167402 -0.187233 -3.360033 5.400158 -25.231235 3.105254 1.433936 -58.920949 -7.324042 10.212028 7.453851 -22.749864 8.284470 -6.798085 -7.337752 -6.944840 25.940979 1.094188 2.898547 59.260029 7.590982 12.300592 -11.640317 17.579872 -5.339417 4.289400 3.077472 -7.647705 
160.820206 30.255556 99.525307 175.578248 -1.278604 87.353166 1.682345 2.521962 7.800189 -2.459168 -2.333234 -1.931690 1.155584 7.935931 -2.591053 nan nan nan -1.472083 -2.370727 6.886182 2.771580 2.720634 -1.407459 8.767333 0.186299 -0.741111 nan nan nan -0.137520 1.000678 3.156211 1.018363 -2.065750 4.177127 -0.677755 0.273927 2.136219 -0.871886 1.197732 1.470608 -0.444949 -3.104723 4.526367 -25.455458 2.787758 1.237999 -58.727162 -7.264943 10.426684 7.623772 -22.356693 7.850261 -7.523036 -8.292088 -6.657800 25.791514 1.334792 3.392307 59.555896 8.247126 12.173127 -11.982118 17.197604 -5.868443 4.395493 3.860306 -7.605364 
160.853745 30.256733 99.519836 175.510846 -1.282752 87.375355 1.706004 2.596852 7.672456 -2.468267 -2.209935 -1.723300 1.113178 7.796567 -2.704719 nan nan nan -1.435216 -2.423430 6.879771 2.668595 2.819747 -1.401424 8.903124 0.261128 -0.754380 nan nan nan -0.176492 1.027667 3.067877 1.066145 -2.073892 4.284068 -0.594267 0.271884 2.111530 -0.771584 1.321482 1.430188 -0.637521 -2.837230 4.448787 -25.537176 2.733043 1.208680 -58.730975 -7.249073 10.361378 7.597286 -22.301412 7.864807 -7.620042 -8.302504 -6.656177 25.594059 1.377883 3.487558 59.708983 8.372914 12.136490 -11.956869 17.183702 -5.912359 4.510445 3.954985 -7.622183 
160.876663 30.253410 99.514198 175.563128 -1.219876 87.307374 1.806501 2.614714 7.691315 -2.475654 -2.228297 -1.658686 1.072934 7.736924 -2.750004 nan nan nan -1.333062 -2.513134 6.967289 2.619718 2.849764 -1.394894 8.936363 0.244173 -0.813998 nan nan nan -0.096424 0.977268 3.187731 1.047855 -2.083851 4.235252 -0.577085 0.256891 2.152284 -0.735841 1.341190 1.222445 -0.724244 -2.810013 4.670009 -25.601316 2.757179 1.168006 -58.860496 -7.284858 10.287743 7.785621 -22.284018 7.647210 -7.470623 -8.343676 -6.761873 25.518102 1.403315 3.454034 59.788730 8.419705 12.156559 -11.931110 17.150570 -5.948288 4.479437 3.984086 -7.618284 
160.895935 30.256569 99.509979 175.610090 -1.170217 87.257373 1.890034 2.602362 7.724835 -2.489008 -2.262263 -1.646324 1.040284 7.721714 -2.768945 nan nan nan -1.282089 -2.588909 7.017646 2.671635 2.820136 -1.353978 8.932532 0.184260 -0.835507 nan nan nan -0.019133 0.942203 3.272795 1.025792 -2.088442 4.195713 -0.576674 0.223908 2.195145 -0.709934 1.358447 1.049944 -0.759500 -2.792786 4.868162 -25.618024 2.772405 1.142591 -58.945310 -7.302896 10.259700 7.873915 -22.307768 7.558490 -7.376477 -8.340532 -6.787242 25.514667 1.426162 3.402452 59.817589 8.451569 12.161539 -11.946673 17.102017 -5.993389 4.485137 4.004856 -7.602103 
160.905197 30.264614 99.509903 175.631284 -1.154730 87.248545 1.930850 2.597340 7.726411 -2.506006 -2.290867 -1.639578 0.992752 7.726715 -2.789454 nan nan nan -1.278669 -2.627536 7.014356 2.777333 2.700473 -1.286391 8.914734 0.100657 -0.782425 nan nan nan 0.009266 0.903685 3.268480 1.021635 -2.084683 4.216001 -0.569505 0.215452 2.226864 -0.741621 1.376669 0.947829 -0.744613 -2.779272 4.952436 -25.634905 2.747342 1.134360 -58.988525 -7.333793 10.241388 7.875318 -22.276508 7.461713 -7.318738 -8.313607 -6.797667 25.530490 1.448371 3.385793 59.806837 8.496181 12.140029 -11.976568 17.064371 -6.052171 4.525689 4.019786 -7.594251 
160.906036 30.269533 99.506783 175.636652 -1.157860 87.260182 1.930238 2.611489 7.685394 -2.501589 -2.303707 -1.605904 0.969190 7.728673 -2.771985 nan nan nan -1.283625 -2.637343 7.006349 2.805803 2.643724 -1.274172 8.935675 0.069026 -0.711475 nan nan nan 0.006144 0.873932 3.257304 1.032990 -2.076409 4.224863 -0.544575 0.229837 2.243854 -0.808152 1.388231 0.895240 -0.730100 -2.766727 4.968784 -25.665035 2.697046 1.148116 -59.051887 -7.383522 10.199876 7.875574 -22.179544 7.290509 -7.176771 -8.307635 -6.881410 25.508363 1.448419 3.388721 59.810194 8.532011 12.125466 -11.991950 17.053120 -6.093574 4.499235 4.040360 -7.584161 
160.906281 30.274601 99.495796 175.618035 -1.143890 87.258584 1.940715 2.632270 7.662830 -2.495374 -2.319365 -1.567225 0.980593 7.736995 -2.797993 nan nan nan -1.273202 -2.631956 7.019380 2.803083 2.670362 -1.283221 8.935628 0.079810 -0.695402 nan nan nan 0.043958 0.878281 3.283408 1.032582 -2.069424 4.203757 -0.544715 0.248870 2.261457 -0.827221 1.412732 0.829941 -0.739718 -2.765443 5.009517 -25.713359 2.667224 1.142788 -59.063727 -7.418390 10.187516 7.857878 -22.113066 7.209140 -7.048898 -8.307269 -6.950124 25.484437 1.443808 3.377487 59.817222 8.546899 12.132279 -11.982768 17.057158 -6.124612 4.466688 4.038053 -7.594791 
160.908478 30.277403 99.488403 175.604036 -1.138866 87.266835 1.939537 2.629309 7.647999 -2.478024 -2.320221 -1.551685 0.987840 7.751848 -2.817457 nan nan nan -1.267484 -2.632244 7.005175 2.807634 2.685508 -1.263089 8.924207 0.072763 -0.729720 nan nan nan 0.066301 0.903425 3.304021 1.024267 -2.062967 4.181549 -0.548666 0.232294 2.263033 -0.817445 1.414463 0.786129 -0.745632 -2.784456 5.054896 -25.715039 2.676252 1.139864 -59.074694 -7.431331 10.194160 7.847973 -22.087621 7.208964 -7.003190 -8.306529 -6.940387 25.479604 1.425589 3.347982 59.836702 8.532736 12.153035 -11.982673 17.065261 -6.105014 4.478609 4.035850 -7.590698 
160.918594 30.285114 99.484749 175.593974 -1.145874 87.259808 1.936477 2.628337 7.650939 -2.469338 -2.307630 -1.533729 1.008901 7.750037 -2.838854 nan nan nan -1.269566 -2.650304 7.021642 2.806800 2.703735 -1.261818 8.880879 0.067672 -0.729395 nan nan nan 0.070618 0.955796 3.338046 1.009009 -2.050014 4.173659 -0.530192 0.185777 2.241259 -0.837154 1.369992 0.764386 -0.771255 -2.799580 5.051370 -25.704805 2.634818 1.195274 -59.120212 -7.435627 10.219863 7.880782 -22.076479 7.224167 -6.930637 -8.331711 -6.954861 25.481497 1.404690 3.340425 59.850585 8.493289 12.162420 -11.985939 17.129523 -6.034825 4.468815 4.042072 -7.599209 
160.928268 30.288975 99.480606 175.593346 -1.157930 87.239110 1.952483 2.638995 7.663239 -2.514863 -2.301005 -1.509566 1.030700 7.686195 -2.851217 nan nan nan -1.290364 -2.651700 7.058007 2.824138 2.709583 -1.267922 8.813242 0.069082 -0.733877 nan nan nan 0.062702 0.942266 3.328856 1.015040 -2.064855 4.234408 -0.548402 0.212789 2.241183 -0.850380 1.337564 0.787287 -0.784731 -2.810808 4.937499 -25.703005 2.576861 1.257571 -59.118035 -7.432829 10.244226 7.954265 -22.154224 7.328940 -7.013401 -8.329074 -6.930100 25.485332 1.468060 3.390487 59.874126 8.521834 12.116220 -12.034248 17.132173 -6.059280 4.504645 4.041782 -7.625206 
160.943039 30.296658 99.477921 175.574501 -1.153362 87.214101 2.004852 2.668712 7.707022 -2.572985 -2.267987 -1.529397 1.029969 7.623945 -2.835813 nan nan nan -1.280993 -2.633689 7.100345 2.820569 2.689918 -1.287638 8.808294 0.086743 -0.729816 nan nan nan 0.083502 0.932703 3.361394 1.022050 -2.077499 4.240829 -0.588383 0.244643 2.245499 -0.855198 1.319418 0.787635 -0.774817 -2.852511 4.884716 -25.663113 2.589545 1.289746 -59.125328 -7.436136 10.249559 8.008218 -22.259225 7.498511 -7.218842 -8.229324 -6.793774 25.499312 1.518594 3.413898 59.910073 8.521876 12.082060 -12.119347 17.133992 -6.105413 4.562052 4.034576 -7.594538 
160.947098 30.301371 99.473373 175.565635 -1.147569 87.217050 2.012386 2.680172 7.707231 -2.566439 -2.237132 -1.545503 1.034866 7.609934 -2.826070 nan nan nan -1.271564 -2.613627 7.113156 2.780077 2.742302 -1.329007 8.858298 0.118185 -0.740877 nan nan nan 0.123036 0.941023 3.380034 1.012460 -2.070274 4.232475 -0.609345 0.243915 2.238823 -0.888700 1.289324 0.797839 -0.799579 -2.864071 4.833298 -25.607864 2.593921 1.286664 -59.145412 -7.415325 10.271293 8.001765 -22.333606 7.671634 -7.400863 -8.104627 -6.656077 25.488148 1.526341 3.420234 59.938306 8.501491 12.055198 -12.143681 17.172001 -6.130090 4.565126 4.031902 -7.574974 
